# This file uses centimeters as units for non-parametric coordinates.

mtllib Icoso-Slice.mtl
g default
v 2.628655 -3.606964 2.253881
v -2.628655 -3.606964 2.253881
v -2.628655 3.606964 -2.253881
v 2.628655 3.606964 -2.253881
v -4.253254 -1.392975 -2.229226
v -4.253254 1.392975 2.229226
v 4.253254 1.392975 2.229226
v 4.253254 -1.392975 -2.229226
v 0.000000 -0.024655 -4.999939
v 0.000000 -4.483108 -2.213989
v 0.000000 4.483108 2.213989
vt 0.181818 0.250000
vt 0.363636 0.250000
vt 0.545455 0.250000
vt 0.090909 0.416667
vt 0.272727 0.416667
vt 0.454545 0.416667
vt 0.636364 0.416667
vt 0.000000 0.583333
vt 0.181818 0.583333
vt 0.363636 0.583333
vt 0.545455 0.583333
vt 0.727273 0.583333
vt 0.909091 0.583333
vt 0.090909 0.750000
vt 0.272727 0.750000
vt 0.454545 0.750000
vt 0.636364 0.750000
vt 0.818182 0.750000
vn -0.586228 -0.806504 0.076733
vn -0.000000 -0.896622 -0.442798
vn 0.586228 -0.806504 0.076734
vn 0.850651 -0.278595 -0.445845
vn 0.948536 0.308553 0.071235
vn -0.850651 -0.278595 -0.445845
vn -0.948536 0.308553 0.071235
vn 0.525731 0.721393 -0.450776
vn -0.000000 -0.004931 -0.999988
vn -0.525731 0.721393 -0.450776
vn -0.000000 0.997696 0.067837
vn 0.000000 0.004931 0.999988
vn 0.000000 0.004931 0.999988
vn 0.000000 0.004931 0.999988
vn 0.000000 0.004931 0.999988
vn 0.000000 0.004931 0.999988
s 1
g pSolid1
usemtl initialShadingGroup
f 2/13/1 10/18/2 1/12/3
f 1/12/3 8/11/4 7/7/5
f 1/12/3 10/17/2 8/11/4
f 5/9/6 2/8/1 6/4/7
f 10/14/2 2/8/1 5/9/6
f 4/6/8 9/10/9 3/5/10
f 3/5/10 11/2/11 4/6/8
f 5/9/6 6/4/7 3/5/10
f 3/5/10 9/10/9 5/9/6
f 6/4/7 11/1/11 3/5/10
f 7/7/5 8/11/4 4/6/8
f 4/6/8 11/3/11 7/7/5
f 4/6/8 8/11/4 9/10/9
f 5/9/6 9/10/9 10/15/2
f 8/11/4 10/16/2 9/10/9
s 3
f 2/13/12 1/12/13 6/4/14
f 1/12/13 7/7/15 6/4/14
f 7/7/15 11/1/16 6/4/14
